
<svg xmlns="http://www.w3.org/2000/svg" version="1.1" xmlns:xlink="http://www.w3.org/1999/xlink" preserveAspectRatio="none" x="0px" y="0px" width="50px" height="50px" viewBox="0 0 50 50">
<defs>
<g id="GlobeIcon_0_Layer2_0_FILL">
<path fill="#000000" stroke="none" d="
M 75 -0.9
L 75 -1
Q 74.65 -31.4 53.1 -53.05 31.1 -74.95 0.1 -75
L -0.05 -75
Q -31.05 -74.95 -53.05 -53.05 -74.65 -31.4 -75 -1
L -75 -0.9
Q -75 -0.85 -75 -0.8 -75 -0.35 -75 0 -75 31.15 -53.05 53 -31.05 75 -0.05 75
L 0.1 75
Q 31.1 75 53.1 53 75 31.15 75 0 75 -0.35 75 -0.8 75 -0.85 75 -0.9
M 49.65 -49.7
Q 69 -30.25 70.1 -3.3
L 2.4 -3.3 2.4 -70.15
Q 29.95 -69.35 49.65 -49.7
M 70.15 1.5
Q 69.65 29.65 49.65 49.65 29.95 69.35 2.4 70.2
L 2.4 1.5 70.15 1.5
M -49.6 -49.7
Q -29.9 -69.35 -2.4 -70.15
L -2.4 -3.3 -70.1 -3.3
Q -69 -30.25 -49.6 -49.7
M -2.4 70.2
Q -29.9 69.35 -49.6 49.65 -69.65 29.65 -70.1 1.5
L -2.4 1.5 -2.4 70.2 Z"/>
</g>

<g id="GlobeIcon_0_Layer1_0_FILL">
<path fill="#000000" stroke="none" d="
M 1.25 -74.95
Q 0.6 -75 0.05 -75
L -0.45 -75
Q -0.5 -75 -0.55 -75
L -1.05 -75
Q -31.45 -74.6 -53.05 -53.05 -75 -31.1 -75 0 -75 31.15 -53.05 53 -31.4 74.65 -1 75
L 1.65 75
Q 31.65 74.45 53.1 53 75 31.15 75 0 75 -31.1 53.1 -53.05 31.7 -74.4 1.75 -74.9 1.5 -74.925 1.25 -74.95
M 1.05 -70.15
Q 14.05 -69.25 23.45 -50.35 33.75 -29.5 33.75 0 33.75 29.5 23.45 50.3 14.05 69.3 1 70.25 0.95 70.25 0.9 70.25
L -0.45 70.25
Q -13.8 69.6 -23.35 50.3 -33.7 29.5 -33.7 0 -33.7 -29.5 -23.35 -50.35 -13.8 -69.6 -0.45 -70.2
L 0.05 -70.2
Q 0.4 -70.2 0.8 -70.15 0.85 -70.15 0.9 -70.15 0.95 -70.15 1 -70.15
L 1.05 -70.15
M 27.8 -52.45
Q 22.65 -62.8 16.5 -68.4 35.2 -64.15 49.65 -49.7 70.15 -29.1 70.15 0 70.15 29.1 49.65 49.65 35.15 64.15 16.45 68.45 22.65 62.8 27.8 52.4 38.6 30.75 38.6 0 38.6 -30.75 27.8 -52.45
M -16.3 -68.45
Q -22.55 -62.85 -27.75 -52.45 -38.5 -30.75 -38.5 0 -38.5 30.75 -27.75 52.4 -22.55 62.85 -16.25 68.45 -35.1 64.2 -49.6 49.65 -70.15 29.1 -70.15 0 -70.15 -29.1 -49.6 -49.7 -35.1 -64.2 -16.3 -68.45 Z"/>
</g>

<g id="GlobeIcon_0_Layer0_0_FILL">
<path fill="#000000" stroke="none" d="
M -57.4 45
Q -58.1 45.7 -58.1 46.7 -58.1 47.65 -57.4 48.4 -56.65 49.05 -55.65 49.05 -54.7 49.05 -53.95 48.35 -49.95 44.35 -40.85 41.15 -23.9 35.2 0 35.2 23.95 35.2 40.85 41.15 50 44.35 54.05 48.35 54.75 49.05 55.75 49.05 56.7 49.05 57.45 48.4 58.15 47.65 58.15 46.7 58.15 45.7 57.5 45 52.9 40.35 42.5 36.65 24.9 30.4 0 30.4 -24.85 30.4 -42.5 36.65 -52.9 40.35 -57.4 45
M 58.1 -46.65
Q 58.1 -47.65 57.4 -48.3 56.65 -49.05 55.7 -49.05 54.7 -49.05 54 -48.3 50 -44.35 40.85 -41.15 23.9 -35.15 0 -35.15 -23.95 -35.15 -40.85 -41.15 -50 -44.35 -54 -48.3 -54.75 -49.05 -55.7 -49.05 -56.7 -49.05 -57.45 -48.3 -58.15 -47.65 -58.15 -46.65 -58.15 -45.7 -57.45 -44.95 -52.9 -40.35 -42.5 -36.65 -24.9 -30.4 0 -30.4 24.85 -30.4 42.5 -36.65 52.95 -40.35 57.45 -44.95 58.1 -45.7 58.1 -46.65 Z"/>
</g>
</defs>

<g transform="matrix( 0.9999847412109375, 0, 0, 0.9999847412109375, 24.95,24.95) ">
<g transform="matrix( 0.3330078125, 0, 0, 0.33331298828125, 0,0) ">
<g transform="matrix( 1, 0, 0, 1, 0,0) ">
<use xlink:href="#GlobeIcon_0_Layer2_0_FILL"/>
</g>

<g transform="matrix( 1, 0, 0, 1, 0,0) ">
<use xlink:href="#GlobeIcon_0_Layer1_0_FILL"/>
</g>

<g transform="matrix( 1, 0, 0, 1, 0,0) ">
<use xlink:href="#GlobeIcon_0_Layer0_0_FILL"/>
</g>
</g>
</g>
</svg>
